# Wavefront OBJ file automatically generated by Tiled2Unity

# Vertices (Count = 52)
v -19.8000011444092 -6.59999990463257 0
v -23.1000003814697 -6.59999990463257 0
v -23.1000003814697 -3.29999995231628 0
v -19.8000011444092 -3.29999995231628 0
v -26.3999996185303 -6.59999990463257 0
v -26.3999996185303 -3.29999995231628 0
v -29.7000007629395 -6.59999990463257 0
v -29.7000007629395 -3.29999995231628 0
v -19.8000011444092 -9.90000057220459 0
v -23.1000003814697 -9.90000057220459 0
v -26.3999996185303 -9.90000057220459 0
v -29.7000007629395 -9.90000057220459 0
v -6.59999990463257 -13.1999998092651 0
v -9.90000057220459 -13.1999998092651 0
v -9.90000057220459 -9.90000057220459 0
v -6.59999990463257 -9.90000057220459 0
v -13.1999998092651 -13.1999998092651 0
v -13.1999998092651 -9.90000057220459 0
v -16.5 -13.1999998092651 0
v -16.5 -9.90000057220459 0
v -23.1000003814697 -13.1999998092651 0
v -26.3999996185303 -13.1999998092651 0
v -6.59999990463257 -16.5 0
v -9.90000057220459 -16.5 0
v -6.59999990463257 -19.8000011444092 0
v -9.90000057220459 -19.8000011444092 0
v -16.5 -19.8000011444092 0
v -19.8000011444092 -19.8000011444092 0
v -19.8000011444092 -16.5 0
v -16.5 -16.5 0
v -6.59999990463257 -23.1000003814697 0
v -9.90000057220459 -23.1000003814697 0
v -16.5 -23.1000003814697 0
v -19.8000011444092 -23.1000003814697 0
v -6.59999990463257 -26.3999996185303 0
v -9.90000057220459 -26.3999996185303 0
v -16.5 -26.3999996185303 0
v -19.8000011444092 -26.3999996185303 0
v -3.29999995231628 -29.7000007629395 0
v -6.59999990463257 -29.7000007629395 0
v -3.29999995231628 -26.3999996185303 0
v -9.90000057220459 -29.7000007629395 0
v -13.1999998092651 -29.7000007629395 0
v -13.1999998092651 -26.3999996185303 0
v -16.5 -29.7000007629395 0
v -19.8000011444092 -29.7000007629395 0
v -23.1000003814697 -29.7000007629395 0
v -23.1000003814697 -26.3999996185303 0
v -26.3999996185303 -29.7000007629395 0
v -26.3999996185303 -26.3999996185303 0
v -29.7000007629395 -29.7000007629395 0
v -29.7000007629395 -26.3999996185303 0

# Texture Coorindates (Count = 40)
vt 0.2063721 0.931372
vt 0.2473779 0.931372
vt 0.2473779 0.9998779
vt 0.2063721 0.9998779
vt 0.2476221 0.931372
vt 0.2886279 0.931372
vt 0.2886279 0.9998779
vt 0.2476221 0.9998779
vt 0.2888721 0.931372
vt 0.3298779 0.931372
vt 0.3298779 0.9998779
vt 0.2888721 0.9998779
vt 0.7838721 0.931372
vt 0.8248779 0.931372
vt 0.8248779 0.9998779
vt 0.7838721 0.9998779
vt 0.8251221 0.931372
vt 0.8661279 0.931372
vt 0.8661279 0.9998779
vt 0.8251221 0.9998779
vt 0.866372 0.931372
vt 0.907378 0.931372
vt 0.907378 0.9998779
vt 0.866372 0.9998779
vt 0.4126221 0.7251221
vt 0.4536279 0.7251221
vt 0.4536279 0.7936279
vt 0.4126221 0.7936279
vt 0.7013721 0.4501221
vt 0.7423779 0.4501221
vt 0.7423779 0.5186279
vt 0.7013721 0.5186279
vt 0.4126221 0.8626221
vt 0.4536279 0.8626221
vt 0.4536279 0.9311279
vt 0.4126221 0.9311279
vt 0.6601221 0.8626221
vt 0.7011279 0.8626221
vt 0.7011279 0.9311279
vt 0.6601221 0.9311279

# Normal
vn 0 0 -1

# Groups (Count = 1)
g mesh_[00]_[00]
f  1/1/1  2/2/1  3/3/1  4/4/1 
f  2/5/1  5/6/1  6/7/1  3/8/1 
f  5/9/1  7/10/1  8/11/1  6/12/1 
f  9/13/1  10/14/1  2/15/1  1/16/1 
f  10/17/1  11/18/1  5/19/1  2/20/1 
f  11/21/1  12/22/1  7/23/1  5/24/1 
f  13/25/1  14/26/1  15/27/1  16/28/1 
f  14/29/1  17/30/1  18/31/1  15/32/1 
f  17/29/1  19/30/1  20/31/1  18/32/1 
f  21/33/1  22/34/1  11/35/1  10/36/1 
f  23/25/1  24/26/1  14/27/1  13/28/1 
f  25/25/1  26/26/1  24/27/1  23/28/1 
f  27/25/1  28/26/1  29/27/1  30/28/1 
f  31/25/1  32/26/1  26/27/1  25/28/1 
f  33/25/1  34/26/1  28/27/1  27/28/1 
f  35/25/1  36/26/1  32/27/1  31/28/1 
f  37/25/1  38/26/1  34/27/1  33/28/1 
f  39/37/1  40/38/1  35/39/1  41/40/1 
f  40/37/1  42/38/1  36/39/1  35/40/1 
f  42/37/1  43/38/1  44/39/1  36/40/1 
f  43/37/1  45/38/1  37/39/1  44/40/1 
f  45/37/1  46/38/1  38/39/1  37/40/1 
f  46/37/1  47/38/1  48/39/1  38/40/1 
f  47/37/1  49/38/1  50/39/1  48/40/1 
f  49/37/1  51/38/1  52/39/1  50/40/1 
